<svg xmlns="http://www.w3.org/2000/svg" style="color:#20231f" viewBox="0 0 300 150" role="img" aria-labelledby="sk-led-title"><title id="sk-led-title">Technical drawing of Minitron's LED information display</title><defs><pattern id="sk-dot-matrix" width="7" height="7" patternUnits="userSpaceOnUse"><circle cx="2" cy="2" r="1" fill="#5e6157"/></pattern></defs><g stroke="#20231f" stroke-width="1.2" fill="#f0efe6"><path d="m49 30 194-5 15 12v89l-194 5-15-12z"/><path d="m49 30 15 12 194-5M64 42v89" fill="none"/><path d="M76 51h169v67H76z" fill="#20231f"/></g><path d="M79 54h163v60H79z" fill="url(#sk-dot-matrix)"/><g fill="#f55b2d"><path d="M91 69h7v28h-7zm7-7h14v7H98zm14 7h7v28h-7zm-14 7h14v7H98zM133 62h7v35h-7zm-7 28h21v7h-21zM165 65h63v7h-63zm0 14h42v7h-42zm0 14h56v7h-56z"/></g><g stroke="#20231f" fill="none"><path d="M49 16h194M49 12v8m194-8v8M273 39v87m-4-87h8m-8 87h8"/></g></svg>
